# xmcd
#
# Track frame offsets:
#	150
#	21229
#	39886
#	62429
#	80184
#	99202
#	117184
#	131198
#	147919
#	170440
#	200973
#	225699
#
# Disc length: 3241 seconds
#
# Revision: 0
# Processed by: cddbd v1.5.1PL2 Copyright (c) Steve Scherf et al.
# Submitted via: EasyCDDAExtractor 9.0.0.1
#
DISCID=a40ca70c
DTITLE=Scorpions - Scandinavium Gothenburg 14-01-89 Disc 1
DYEAR=1989
DGENRE=Hard Rock
TTITLE0=We Let It Rock You Let It Roll
TTITLE1=Blackout
TTITLE2=Big City Nights
TTITLE3=Rhythm Of Love
TTITLE4=Every Minute Every Day
TTITLE5=Bad Boys Running Wild
TTITLE6=Media Overkill
TTITLE7=Make It Real
TTITLE8=Coast To Coast
TTITLE9=Holiday
TTITLE10=Still Loving You
TTITLE11=Don't Stop At The Top
EXTD=
EXTT0=
EXTT1=
EXTT2=
EXTT3=
EXTT4=
EXTT5=
EXTT6=
EXTT7=
EXTT8=
EXTT9=
EXTT10=
EXTT11=
PLAYORDER=
